<svg xmlns="http://www.w3.org/2000/svg" xmlns:xlink="http://www.w3.org/1999/xlink" width="95" zoomAndPan="magnify" viewBox="0 0 71.25 33.749999" height="45" preserveAspectRatio="xMidYMid meet" version="1.0"><defs><g/><clipPath id="8b6acb964c"><path d="M 29 6 L 70.507812 6 L 70.507812 21 L 29 21 Z M 29 6 " clip-rule="nonzero"/></clipPath></defs><g fill="#ffffff" fill-opacity="1"><g transform="translate(4.617933, 17.83935)"><g><path d="M 0.09375 -7.359375 L 0.09375 -9.203125 L 6.5625 -9.203125 L 6.5625 -7.359375 L 4.375 -7.359375 L 4.375 0 L 2.28125 0 L 2.28125 -7.359375 Z M 0.09375 -7.359375 "/></g></g></g><g fill="#ffffff" fill-opacity="1"><g transform="translate(11.261109, 17.83935)"><g><path d="M 6.453125 -2.59375 L 2.3125 -2.59375 C 2.3125 -2.1875 2.441406 -1.882812 2.703125 -1.6875 C 2.960938 -1.5 3.242188 -1.40625 3.546875 -1.40625 C 3.867188 -1.40625 4.117188 -1.445312 4.296875 -1.53125 C 4.484375 -1.613281 4.695312 -1.785156 4.9375 -2.046875 L 6.375 -1.328125 C 5.78125 -0.328125 4.789062 0.171875 3.40625 0.171875 C 2.539062 0.171875 1.796875 -0.125 1.171875 -0.71875 C 0.554688 -1.3125 0.25 -2.023438 0.25 -2.859375 C 0.25 -3.691406 0.554688 -4.40625 1.171875 -5 C 1.796875 -5.59375 2.539062 -5.890625 3.40625 -5.890625 C 4.3125 -5.890625 5.046875 -5.625 5.609375 -5.09375 C 6.179688 -4.570312 6.46875 -3.828125 6.46875 -2.859375 C 6.46875 -2.722656 6.460938 -2.632812 6.453125 -2.59375 Z M 2.359375 -3.6875 L 4.546875 -3.6875 C 4.492188 -3.976562 4.375 -4.203125 4.1875 -4.359375 C 4 -4.523438 3.753906 -4.609375 3.453125 -4.609375 C 3.128906 -4.609375 2.867188 -4.519531 2.671875 -4.34375 C 2.484375 -4.175781 2.378906 -3.957031 2.359375 -3.6875 Z M 2.359375 -3.6875 "/></g></g></g><g fill="#ffffff" fill-opacity="1"><g transform="translate(17.98231, 17.83935)"><g><path d="M 3.71875 -4.265625 C 3.34375 -4.265625 3.019531 -4.128906 2.75 -3.859375 C 2.488281 -3.585938 2.359375 -3.253906 2.359375 -2.859375 C 2.359375 -2.472656 2.488281 -2.140625 2.75 -1.859375 C 3.019531 -1.585938 3.34375 -1.453125 3.71875 -1.453125 C 3.894531 -1.453125 4.0625 -1.472656 4.21875 -1.515625 C 4.382812 -1.554688 4.503906 -1.601562 4.578125 -1.65625 L 4.671875 -1.71875 L 5.34375 -0.34375 C 5.289062 -0.3125 5.21875 -0.265625 5.125 -0.203125 C 5.03125 -0.148438 4.816406 -0.078125 4.484375 0.015625 C 4.160156 0.117188 3.804688 0.171875 3.421875 0.171875 C 2.585938 0.171875 1.847656 -0.125 1.203125 -0.71875 C 0.566406 -1.3125 0.25 -2.019531 0.25 -2.84375 C 0.25 -3.675781 0.566406 -4.390625 1.203125 -4.984375 C 1.847656 -5.585938 2.585938 -5.890625 3.421875 -5.890625 C 3.804688 -5.890625 4.15625 -5.84375 4.46875 -5.75 C 4.789062 -5.664062 5.019531 -5.578125 5.15625 -5.484375 L 5.34375 -5.359375 L 4.671875 -4 C 4.429688 -4.175781 4.113281 -4.265625 3.71875 -4.265625 Z M 3.71875 -4.265625 "/></g></g></g><g fill="#ffffff" fill-opacity="1"><g transform="translate(23.455132, 17.83935)"><g><path d="M 0.671875 0 L 0.671875 -9.59375 L 2.640625 -9.59375 L 2.640625 -5.125 L 2.671875 -5.125 C 3.179688 -5.632812 3.726562 -5.890625 4.3125 -5.890625 C 4.59375 -5.890625 4.867188 -5.851562 5.140625 -5.78125 C 5.421875 -5.707031 5.691406 -5.59375 5.953125 -5.4375 C 6.210938 -5.28125 6.421875 -5.054688 6.578125 -4.765625 C 6.734375 -4.484375 6.8125 -4.148438 6.8125 -3.765625 L 6.8125 0 L 4.84375 0 L 4.84375 -3.234375 C 4.84375 -3.535156 4.742188 -3.796875 4.546875 -4.015625 C 4.359375 -4.234375 4.113281 -4.34375 3.8125 -4.34375 C 3.519531 -4.34375 3.25 -4.226562 3 -4 C 2.757812 -3.769531 2.640625 -3.515625 2.640625 -3.234375 L 2.640625 0 Z M 0.671875 0 "/></g></g></g><g clip-path="url(#8b6acb964c)"><path stroke-linecap="butt" transform="matrix(0.788799, 0, 0, 0.788799, 32.174526, 7.680117)" fill="none" stroke-linejoin="miter" d="M 1.536758 2.396296 L 9.678096 2.396296 L 9.678096 4.248401 L 3.49781 4.248401 L 3.49781 6.635338 L 7.80123 6.635338 L 7.80123 8.487443 L 3.49781 8.487443 L 3.49781 12.998853 L 1.536758 12.998853 L 1.536758 8.487443 L 0.269007 8.487443 L 0.269007 6.635338 L 1.536758 6.635338 Z M 12.307688 4.827803 L 12.307688 12.998853 L 10.549674 12.998853 L 10.549674 4.827803 Z M 10.445679 3.153976 C 10.445679 2.881607 10.53977 2.653808 10.727952 2.460674 C 10.921086 2.26754 11.153837 2.173449 11.426205 2.173449 C 11.698573 2.173449 11.926372 2.26754 12.114554 2.460674 C 12.307688 2.653808 12.401779 2.881607 12.401779 3.153976 C 12.401779 3.421392 12.307688 3.654143 12.114554 3.847277 C 11.926372 4.040411 11.698573 4.134502 11.426205 4.134502 C 11.153837 4.134502 10.921086 4.040411 10.727952 3.847277 C 10.53977 3.654143 10.445679 3.421392 10.445679 3.153976 Z M 18.349313 6.159932 C 17.769911 6.159932 17.279648 6.333257 16.86862 6.674955 C 16.457591 7.016654 16.185223 7.482156 16.051515 8.06651 L 20.78082 8.06651 C 20.607494 7.49206 20.315317 7.03151 19.899337 6.68486 C 19.483356 6.333257 18.96338 6.159932 18.349313 6.159932 Z M 14.090463 8.913328 C 14.090463 8.358687 14.189506 7.828807 14.392544 7.308831 C 14.595582 6.788855 14.892711 6.333257 15.278979 5.932133 C 15.670199 5.531008 16.140654 5.209119 16.695295 4.966463 C 17.254888 4.723808 17.883811 4.604956 18.582064 4.604956 C 19.022806 4.604956 19.498212 4.699047 20.008284 4.887229 C 20.523308 5.070458 20.993762 5.362635 21.419647 5.763759 C 21.845532 6.159932 22.202087 6.670003 22.474456 7.293974 C 22.751776 7.912993 22.87558 8.655816 22.835963 9.517491 L 16.051515 9.517491 C 16.071323 9.834428 16.160462 10.121653 16.309027 10.379165 C 16.462543 10.641629 16.650725 10.864476 16.873572 11.05761 C 17.101371 11.250744 17.358883 11.399308 17.65106 11.508256 C 17.943237 11.612251 18.245318 11.661772 18.547399 11.661772 C 19.052519 11.661772 19.503165 11.547873 19.899337 11.310169 C 20.295509 11.072466 20.632255 10.770385 20.909576 10.398974 L 22.400173 11.225983 C 22.09314 11.607299 21.776202 11.929188 21.444408 12.181748 C 21.112614 12.434308 20.785772 12.637346 20.45893 12.790863 C 20.132088 12.939427 19.805246 13.048375 19.483356 13.117705 C 19.166418 13.182083 18.864337 13.216748 18.582064 13.216748 C 17.883811 13.216748 17.25984 13.097896 16.705199 12.855241 C 16.15551 12.612585 15.685056 12.295648 15.293836 11.894523 C 14.907568 11.493399 14.610439 11.032849 14.402448 10.517825 C 14.194458 9.997849 14.090463 9.463017 14.090463 8.913328 Z M 24.197804 7.274166 C 24.197804 6.922563 24.267135 6.590769 24.405795 6.268879 C 24.549407 5.946989 24.757398 5.664716 25.034718 5.417109 C 25.312039 5.169501 25.648785 4.971415 26.044957 4.827803 C 26.446081 4.679238 26.901679 4.604956 27.406799 4.604956 C 27.981248 4.604956 28.530937 4.694095 29.050913 4.877324 C 29.575841 5.055602 30.110674 5.342827 30.650458 5.738999 L 29.655076 6.972085 L 29.620411 6.937419 C 29.328234 6.699716 28.996439 6.496678 28.639885 6.323353 C 28.278377 6.150027 27.887157 6.060889 27.461272 6.060889 C 27.268139 6.060889 27.079957 6.080697 26.896727 6.125267 C 26.71845 6.169836 26.559981 6.239166 26.421321 6.328305 C 26.277708 6.417444 26.168761 6.526391 26.084574 6.650195 C 25.995436 6.773998 25.955818 6.917611 25.955818 7.085984 C 25.955818 7.338544 26.044957 7.526726 26.223234 7.655481 C 26.401512 7.784237 26.668928 7.88328 27.020531 7.947658 L 28.793401 8.284405 C 29.521368 8.423065 30.066104 8.66572 30.417707 9.022275 C 30.779214 9.373878 30.957492 9.859189 30.957492 10.468304 C 30.957492 10.770385 30.888161 11.087323 30.759405 11.414165 C 30.63065 11.741007 30.422659 12.033184 30.145339 12.3006 C 29.863066 12.563064 29.506511 12.780959 29.070722 12.959236 C 28.634932 13.132561 28.110004 13.216748 27.490985 13.216748 C 26.817493 13.216748 26.178665 13.102848 25.574503 12.870097 C 24.975292 12.642298 24.385986 12.280791 23.811537 11.785576 L 25.009957 10.567347 C 25.019862 10.587155 25.094144 10.66639 25.237756 10.800098 C 25.376417 10.928854 25.564598 11.062562 25.792397 11.211126 C 26.025148 11.354739 26.292565 11.483495 26.594646 11.597394 C 26.896727 11.711294 27.223569 11.765767 27.575172 11.765767 C 27.82278 11.765767 28.045626 11.736054 28.248665 11.676629 C 28.456655 11.612251 28.625028 11.533016 28.76864 11.429021 C 28.907301 11.325026 29.016248 11.216079 29.09053 11.092275 C 29.164813 10.968471 29.199478 10.849619 29.199478 10.73572 C 29.199478 10.443543 29.09053 10.2306 28.877588 10.086988 C 28.664645 9.943376 28.417038 9.849285 28.129813 9.789859 L 27.139383 9.606629 C 26.574837 9.502634 26.104383 9.37883 25.728019 9.235218 C 25.351656 9.086653 25.049575 8.91828 24.826728 8.730098 C 24.598929 8.536964 24.44046 8.31907 24.341417 8.086319 C 24.247326 7.848615 24.197804 7.576247 24.197804 7.274166 Z M 34.409141 2.173449 L 34.409141 4.827803 L 35.8106 4.827803 L 35.8106 6.481821 L 34.409141 6.481821 L 34.409141 9.775002 C 34.409141 10.235553 34.478471 10.577251 34.61218 10.790194 C 34.745888 11.003136 34.924165 11.171509 35.137108 11.295313 L 36.082969 11.835098 L 35.305481 13.216748 C 34.924165 13.03847 34.56761 12.860193 34.240768 12.672011 C 33.913926 12.488782 33.631653 12.280791 33.39395 12.04804 C 33.161199 11.815289 32.977969 11.542921 32.849214 11.225983 C 32.720458 10.909045 32.65608 10.532682 32.65608 10.09194 L 32.65608 6.481821 L 31.655745 6.481821 L 31.655745 4.827803 L 32.65608 4.827803 L 32.65608 2.663713 Z M 41.228254 6.263927 C 40.866747 6.263927 40.530001 6.333257 40.213063 6.471917 C 39.901078 6.610577 39.628709 6.803711 39.395958 7.046367 C 39.168159 7.289022 38.979977 7.571295 38.846269 7.893185 C 38.712561 8.210122 38.643231 8.551821 38.643231 8.913328 C 38.643231 9.284739 38.712561 9.63139 38.846269 9.95328 C 38.979977 10.270218 39.168159 10.547538 39.405862 10.785241 C 39.643566 11.022945 39.915934 11.211126 40.232872 11.354739 C 40.544857 11.493399 40.886556 11.562729 41.243111 11.562729 C 41.594713 11.562729 41.921555 11.493399 42.228589 11.354739 C 42.540574 11.211126 42.812943 11.022945 43.050646 10.785241 C 43.288349 10.547538 43.476531 10.270218 43.610239 9.95328 C 43.743947 9.63139 43.813277 9.284739 43.813277 8.913328 C 43.813277 8.551821 43.743947 8.210122 43.610239 7.893185 C 43.476531 7.571295 43.293302 7.289022 43.065503 7.046367 C 42.832751 6.803711 42.560383 6.610577 42.243445 6.471917 C 41.926508 6.333257 41.589761 6.263927 41.228254 6.263927 Z M 36.786174 8.913328 C 36.786174 8.418113 36.885217 7.917946 37.088255 7.402922 C 37.291294 6.887898 37.578518 6.427348 37.94993 6.021271 C 38.326293 5.605291 38.776939 5.268544 39.311772 5.00608 C 39.846604 4.738664 40.445814 4.604956 41.109403 4.604956 C 41.683852 4.604956 42.193924 4.713903 42.64457 4.926846 C 43.095215 5.139788 43.45177 5.436917 43.709282 5.823185 L 43.743947 5.823185 L 43.743947 4.827803 L 45.501961 4.827803 L 45.501961 12.998853 L 43.743947 12.998853 L 43.743947 12.003471 L 43.709282 12.003471 C 43.417105 12.384786 43.03579 12.686868 42.565335 12.89981 C 42.089929 13.112753 41.579857 13.216748 41.025216 13.216748 C 40.351723 13.216748 39.747561 13.092944 39.217681 12.840384 C 38.6878 12.587825 38.242107 12.25603 37.885552 11.845002 C 37.524045 11.433973 37.251676 10.973423 37.063495 10.458399 C 36.880265 9.943376 36.786174 9.428352 36.786174 8.913328 Z M 36.786174 8.913328 " stroke="#ffde59" stroke-width="0.633502" stroke-opacity="1" stroke-miterlimit="4"/></g></svg>