<svg xmlns="http://www.w3.org/2000/svg" xmlns:xlink="http://www.w3.org/1999/xlink" width="95" zoomAndPan="magnify" viewBox="0 0 71.25 33.749999" height="45" preserveAspectRatio="xMidYMid meet" version="1.0"><defs><g/></defs><g fill="#ffffff" fill-opacity="1"><g transform="translate(1.229837, 19.803581)"><g><path d="M 0.09375 -8.265625 L 0.09375 -10.34375 L 7.375 -10.34375 L 7.375 -8.265625 L 4.90625 -8.265625 L 4.90625 0 L 2.5625 0 L 2.5625 -8.265625 Z M 0.09375 -8.265625 "/></g></g></g><g fill="#ffffff" fill-opacity="1"><g transform="translate(8.696019, 19.803581)"><g><path d="M 6.671875 -10.34375 L 6.671875 -8.265625 L 3.109375 -8.265625 L 3.109375 -6.21875 L 6.515625 -6.21875 L 6.515625 -4.140625 L 3.109375 -4.140625 L 3.109375 -2.0625 L 6.671875 -2.0625 L 6.671875 0 L 0.75 0 L 0.75 -10.34375 Z M 6.671875 -10.34375 "/></g></g></g><g fill="#ffffff" fill-opacity="1"><g transform="translate(15.961766, 19.803581)"><g><path d="M 6.25 -2.125 C 6.613281 -2.125 6.960938 -2.175781 7.296875 -2.28125 C 7.640625 -2.394531 7.890625 -2.503906 8.046875 -2.609375 L 8.28125 -2.765625 L 9.28125 -0.765625 C 9.25 -0.742188 9.203125 -0.707031 9.140625 -0.65625 C 9.085938 -0.613281 8.953125 -0.535156 8.734375 -0.421875 C 8.523438 -0.316406 8.296875 -0.222656 8.046875 -0.140625 C 7.804688 -0.0546875 7.488281 0.015625 7.09375 0.078125 C 6.707031 0.148438 6.304688 0.1875 5.890625 0.1875 C 4.929688 0.1875 4.019531 -0.046875 3.15625 -0.515625 C 2.289062 -0.992188 1.59375 -1.644531 1.0625 -2.46875 C 0.539062 -3.289062 0.28125 -4.1875 0.28125 -5.15625 C 0.28125 -5.875 0.4375 -6.566406 0.75 -7.234375 C 1.0625 -7.910156 1.472656 -8.484375 1.984375 -8.953125 C 2.492188 -9.429688 3.09375 -9.8125 3.78125 -10.09375 C 4.46875 -10.382812 5.171875 -10.53125 5.890625 -10.53125 C 6.554688 -10.53125 7.171875 -10.445312 7.734375 -10.28125 C 8.296875 -10.125 8.695312 -9.96875 8.9375 -9.8125 L 9.28125 -9.578125 L 8.28125 -7.5625 C 8.226562 -7.613281 8.140625 -7.675781 8.015625 -7.75 C 7.898438 -7.820312 7.664062 -7.914062 7.3125 -8.03125 C 6.96875 -8.144531 6.613281 -8.203125 6.25 -8.203125 C 5.6875 -8.203125 5.175781 -8.109375 4.71875 -7.921875 C 4.269531 -7.742188 3.914062 -7.503906 3.65625 -7.203125 C 3.394531 -6.898438 3.191406 -6.578125 3.046875 -6.234375 C 2.910156 -5.890625 2.84375 -5.535156 2.84375 -5.171875 C 2.84375 -4.390625 3.132812 -3.6875 3.71875 -3.0625 C 4.3125 -2.4375 5.15625 -2.125 6.25 -2.125 Z M 6.25 -2.125 "/></g></g></g><g fill="#ffffff" fill-opacity="1"><g transform="translate(25.394699, 19.803581)"><g><path d="M 3.109375 -4.140625 L 3.109375 0 L 0.75 0 L 0.75 -10.34375 L 3.109375 -10.34375 L 3.109375 -6.21875 L 6.4375 -6.21875 L 6.4375 -10.34375 L 8.796875 -10.34375 L 8.796875 0 L 6.4375 0 L 6.4375 -4.140625 Z M 3.109375 -4.140625 "/></g></g></g><g fill="#ffffff" fill-opacity="1"><g transform="translate(34.940384, 19.803581)"><g><path d="M 6.734375 -10.34375 L 6.734375 -8.265625 L 3.109375 -8.265625 L 3.109375 -6.21875 L 6.453125 -6.21875 L 6.453125 -4.140625 L 3.109375 -4.140625 L 3.109375 0 L 0.75 0 L 0.75 -10.34375 Z M 6.734375 -10.34375 "/></g></g></g><g fill="#ffffff" fill-opacity="1"><g transform="translate(42.043276, 19.803581)"><g><path d="M 7.25 -2.90625 L 2.59375 -2.90625 C 2.59375 -2.457031 2.738281 -2.125 3.03125 -1.90625 C 3.320312 -1.6875 3.640625 -1.578125 3.984375 -1.578125 C 4.347656 -1.578125 4.632812 -1.625 4.84375 -1.71875 C 5.050781 -1.8125 5.285156 -2.003906 5.546875 -2.296875 L 7.15625 -1.484375 C 6.488281 -0.367188 5.378906 0.1875 3.828125 0.1875 C 2.859375 0.1875 2.023438 -0.140625 1.328125 -0.796875 C 0.628906 -1.460938 0.28125 -2.265625 0.28125 -3.203125 C 0.28125 -4.140625 0.628906 -4.941406 1.328125 -5.609375 C 2.023438 -6.273438 2.859375 -6.609375 3.828125 -6.609375 C 4.835938 -6.609375 5.660156 -6.3125 6.296875 -5.71875 C 6.941406 -5.132812 7.265625 -4.296875 7.265625 -3.203125 C 7.265625 -3.054688 7.257812 -2.957031 7.25 -2.90625 Z M 2.65625 -4.140625 L 5.09375 -4.140625 C 5.050781 -4.472656 4.921875 -4.726562 4.703125 -4.90625 C 4.492188 -5.082031 4.222656 -5.171875 3.890625 -5.171875 C 3.515625 -5.171875 3.21875 -5.070312 3 -4.875 C 2.789062 -4.6875 2.675781 -4.441406 2.65625 -4.140625 Z M 2.65625 -4.140625 "/></g></g></g><g fill="#ffffff" fill-opacity="1"><g transform="translate(49.597141, 19.803581)"><g><path d="M 3.546875 -6.609375 C 3.910156 -6.609375 4.269531 -6.566406 4.625 -6.484375 C 4.988281 -6.398438 5.257812 -6.316406 5.4375 -6.234375 L 5.703125 -6.109375 L 4.96875 -4.65625 C 4.46875 -4.925781 3.992188 -5.0625 3.546875 -5.0625 C 3.296875 -5.0625 3.117188 -5.035156 3.015625 -4.984375 C 2.910156 -4.929688 2.859375 -4.828125 2.859375 -4.671875 C 2.859375 -4.640625 2.859375 -4.609375 2.859375 -4.578125 C 2.867188 -4.546875 2.882812 -4.515625 2.90625 -4.484375 C 2.9375 -4.453125 2.960938 -4.425781 2.984375 -4.40625 C 3.003906 -4.382812 3.039062 -4.359375 3.09375 -4.328125 C 3.144531 -4.304688 3.1875 -4.289062 3.21875 -4.28125 C 3.25 -4.269531 3.296875 -4.25 3.359375 -4.21875 C 3.421875 -4.195312 3.46875 -4.175781 3.5 -4.15625 C 3.539062 -4.144531 3.597656 -4.128906 3.671875 -4.109375 C 3.753906 -4.085938 3.816406 -4.070312 3.859375 -4.0625 C 4.117188 -3.988281 4.34375 -3.90625 4.53125 -3.8125 C 4.726562 -3.71875 4.929688 -3.59375 5.140625 -3.4375 C 5.359375 -3.28125 5.523438 -3.078125 5.640625 -2.828125 C 5.753906 -2.585938 5.8125 -2.3125 5.8125 -2 C 5.8125 -0.539062 4.796875 0.1875 2.765625 0.1875 C 2.304688 0.1875 1.867188 0.117188 1.453125 -0.015625 C 1.046875 -0.160156 0.75 -0.304688 0.5625 -0.453125 L 0.28125 -0.671875 L 1.1875 -2.1875 C 1.257812 -2.132812 1.347656 -2.066406 1.453125 -1.984375 C 1.554688 -1.898438 1.75 -1.789062 2.03125 -1.65625 C 2.320312 -1.519531 2.570312 -1.453125 2.78125 -1.453125 C 3.238281 -1.453125 3.46875 -1.609375 3.46875 -1.921875 C 3.46875 -2.054688 3.410156 -2.164062 3.296875 -2.25 C 3.179688 -2.332031 2.984375 -2.421875 2.703125 -2.515625 C 2.421875 -2.617188 2.203125 -2.710938 2.046875 -2.796875 C 1.640625 -3.003906 1.316406 -3.238281 1.078125 -3.5 C 0.847656 -3.757812 0.734375 -4.109375 0.734375 -4.546875 C 0.734375 -5.203125 0.984375 -5.707031 1.484375 -6.0625 C 1.992188 -6.425781 2.679688 -6.609375 3.546875 -6.609375 Z M 3.546875 -6.609375 "/></g></g></g><g fill="#ffffff" fill-opacity="1"><g transform="translate(55.7605, 19.803581)"><g><path d="M 1.125 -6.421875 L 1.125 -8.828125 L 3.34375 -8.828125 L 3.34375 -6.421875 L 4.703125 -6.421875 L 4.703125 -4.734375 L 3.34375 -4.734375 L 3.34375 -2.6875 C 3.34375 -2.09375 3.507812 -1.796875 3.84375 -1.796875 C 3.925781 -1.796875 4.015625 -1.8125 4.109375 -1.84375 C 4.203125 -1.882812 4.273438 -1.921875 4.328125 -1.953125 L 4.40625 -2 L 4.953125 -0.21875 C 4.472656 0.0507812 3.929688 0.1875 3.328125 0.1875 C 2.898438 0.1875 2.535156 0.113281 2.234375 -0.03125 C 1.941406 -0.175781 1.71875 -0.367188 1.5625 -0.609375 C 1.40625 -0.859375 1.289062 -1.117188 1.21875 -1.390625 C 1.15625 -1.660156 1.125 -1.953125 1.125 -2.265625 L 1.125 -4.734375 L 0.203125 -4.734375 L 0.203125 -6.421875 Z M 1.125 -6.421875 "/></g></g></g><g fill="#ffffff" fill-opacity="1"><g transform="translate(60.70872, 19.803581)"><g><path d="M 1.1875 -0.796875 C 0.582031 -1.453125 0.28125 -2.253906 0.28125 -3.203125 C 0.28125 -4.160156 0.582031 -4.96875 1.1875 -5.625 C 1.789062 -6.28125 2.554688 -6.609375 3.484375 -6.609375 C 4.335938 -6.609375 5.039062 -6.34375 5.59375 -5.8125 L 5.59375 -6.421875 L 7.8125 -6.421875 L 7.8125 0 L 5.609375 0 L 5.609375 -0.734375 L 5.59375 -0.734375 C 5.039062 -0.117188 4.335938 0.1875 3.484375 0.1875 C 2.554688 0.1875 1.789062 -0.140625 1.1875 -0.796875 Z M 3.078125 -4.296875 C 2.785156 -4.015625 2.640625 -3.648438 2.640625 -3.203125 C 2.640625 -2.765625 2.773438 -2.40625 3.046875 -2.125 C 3.328125 -1.84375 3.691406 -1.703125 4.140625 -1.703125 C 4.578125 -1.703125 4.9375 -1.84375 5.21875 -2.125 C 5.5 -2.414062 5.640625 -2.773438 5.640625 -3.203125 C 5.640625 -3.648438 5.492188 -4.015625 5.203125 -4.296875 C 4.921875 -4.578125 4.566406 -4.71875 4.140625 -4.71875 C 3.722656 -4.71875 3.367188 -4.578125 3.078125 -4.296875 Z M 3.078125 -4.296875 "/></g></g></g></svg>